<svg xmlns="http://www.w3.org/2000/svg" viewBox="0 0 35.47 34.64"><defs><style>.cls-1{fill:#ecf0f1;}.cls-2{fill:#545e73;}.cls-3{fill:#8697cb;}.cls-4{fill:#471e7f;}.cls-5{fill:#fff;}</style></defs><title>tasks-yet-to-start</title><g id="Layer_2" data-name="Layer 2"><g id="Layer_3" data-name="Layer 3"><circle class="cls-1" cx="17.32" cy="17.32" r="17.32"/><path class="cls-2" d="M17.32,2.39A14.93,14.93,0,1,1,2.39,17.32,14.95,14.95,0,0,1,17.32,2.39m0-2.39A17.32,17.32,0,1,0,34.64,17.32,17.32,17.32,0,0,0,17.32,0Z"/><path class="cls-3" d="M17.32,3.51a.6.6,0,0,0-.6.6v.6a.6.6,0,0,0,1.19,0v-.6A.6.6,0,0,0,17.32,3.51Z"/><path class="cls-3" d="M17.32,29.19a.6.6,0,0,0-.6.6v.6a.6.6,0,0,0,1.19,0v-.6A.6.6,0,0,0,17.32,29.19Z"/><path class="cls-3" d="M30.46,16.65h-.6a.6.6,0,0,0,0,1.19h.6a.6.6,0,0,0,0-1.19Z"/><path class="cls-3" d="M4.78,16.65h-.6a.6.6,0,0,0,0,1.19h.6a.6.6,0,0,0,0-1.19Z"/><path class="cls-3" d="M26.19,7.53,25.77,8a.6.6,0,1,0,.84.84L27,8.38a.6.6,0,1,0-.84-.84Z"/><path class="cls-3" d="M8,25.69l-.42.42a.6.6,0,1,0,.84.84l.42-.42A.6.6,0,0,0,8,25.69Z"/><path class="cls-3" d="M26.61,25.69a.6.6,0,0,0-.84.84l.42.42a.6.6,0,0,0,.84-.84Z"/><path class="cls-3" d="M8.45,7.53a.6.6,0,0,0-.84.84L8,8.8A.6.6,0,0,0,8.87,8Z"/><path class="cls-2" d="M15.53,17.85H10.75a.6.6,0,0,1,0-1.19h4.78a.6.6,0,0,1,0,1.19Z"/><path class="cls-2" d="M17.32,16.05a.6.6,0,0,1-.6-.6V8.89a.6.6,0,0,1,1.19,0v6.57A.6.6,0,0,1,17.32,16.05Z"/><path class="cls-2" d="M17.32,19.64a2.39,2.39,0,1,1,2.39-2.39A2.39,2.39,0,0,1,17.32,19.64Zm0-3.58a1.19,1.19,0,1,0,1.19,1.19A1.2,1.2,0,0,0,17.32,16.05Z"/><circle class="cls-4" cx="28.3" cy="27.47" r="7.17"/><rect class="cls-5" x="27.71" y="23.7" width="1.19" height="5.02" rx="0.6" ry="0.6"/><rect class="cls-5" x="27.71" y="29.67" width="1.19" height="1.19" rx="0.6" ry="0.6"/></g></g></svg>